<mxfile host="app.diagrams.net" agent="Mozilla/5.0 (Macintosh; Intel Mac OS X 10_15_7) AppleWebKit/537.36 (KHTML, like Gecko) Chrome/131.0.0.0 Safari/537.36" version="26.0.9">
  <diagram name="第 1 页" id="Rp6RsX_k80zBzUGPA9jf">
    <mxGraphModel dx="1242" dy="770" grid="1" gridSize="10" guides="1" tooltips="1" connect="1" arrows="1" fold="1" page="1" pageScale="1" pageWidth="827" pageHeight="1169" background="#ffffff" math="0" shadow="0">
      <root>
        <mxCell id="0" />
        <mxCell id="1" parent="0" />
        <mxCell id="lyd2s_9okQ7E43MFHWTp-28" value="" style="rounded=0;whiteSpace=wrap;html=1;" parent="1" vertex="1">
          <mxGeometry x="20" y="100" width="990" height="570" as="geometry" />
        </mxCell>
        <mxCell id="lyd2s_9okQ7E43MFHWTp-1" value="&lt;font style=&quot;font-size: 18px;&quot;&gt;User&lt;/font&gt;" style="rounded=0;whiteSpace=wrap;html=1;" parent="1" vertex="1">
          <mxGeometry x="40" y="380" width="100" height="40" as="geometry" />
        </mxCell>
        <mxCell id="lyd2s_9okQ7E43MFHWTp-3" value="" style="endArrow=none;dashed=1;html=1;rounded=0;endSize=6;strokeWidth=2;" parent="1" edge="1">
          <mxGeometry width="50" height="50" relative="1" as="geometry">
            <mxPoint x="30" y="200" as="sourcePoint" />
            <mxPoint x="990" y="200" as="targetPoint" />
          </mxGeometry>
        </mxCell>
        <mxCell id="lyd2s_9okQ7E43MFHWTp-5" value="" style="endArrow=none;dashed=1;html=1;rounded=0;strokeWidth=2;" parent="1" edge="1">
          <mxGeometry width="50" height="50" relative="1" as="geometry">
            <mxPoint x="440" y="120" as="sourcePoint" />
            <mxPoint x="440" y="660" as="targetPoint" />
          </mxGeometry>
        </mxCell>
        <mxCell id="lyd2s_9okQ7E43MFHWTp-6" value="用户" style="text;html=1;align=center;verticalAlign=middle;whiteSpace=wrap;rounded=0;fontSize=16;labelBackgroundColor=#FFFFCC;" parent="1" vertex="1">
          <mxGeometry x="40" y="150" width="110" height="20" as="geometry" />
        </mxCell>
        <mxCell id="lyd2s_9okQ7E43MFHWTp-7" value="&lt;font style=&quot;font-size: 18px;&quot;&gt;exchange&lt;/font&gt;" style="rounded=0;whiteSpace=wrap;html=1;fontSize=14;" parent="1" vertex="1">
          <mxGeometry x="510" y="290" width="170" height="50" as="geometry" />
        </mxCell>
        <mxCell id="lyd2s_9okQ7E43MFHWTp-8" value="queue" style="rounded=0;whiteSpace=wrap;html=1;fontSize=18;" parent="1" vertex="1">
          <mxGeometry x="510" y="535" width="170" height="50" as="geometry" />
        </mxCell>
        <mxCell id="lyd2s_9okQ7E43MFHWTp-9" value="vhost" style="text;html=1;align=center;verticalAlign=middle;whiteSpace=wrap;rounded=0;fontSize=16;labelBackgroundColor=#FFFFCC;" parent="1" vertex="1">
          <mxGeometry x="235" y="142.5" width="160" height="35" as="geometry" />
        </mxCell>
        <mxCell id="lyd2s_9okQ7E43MFHWTp-10" value="资源" style="text;html=1;align=center;verticalAlign=middle;whiteSpace=wrap;rounded=0;fontSize=16;labelBackgroundColor=#FFFFCC;" parent="1" vertex="1">
          <mxGeometry x="520" y="140" width="140" height="30" as="geometry" />
        </mxCell>
        <mxCell id="lyd2s_9okQ7E43MFHWTp-12" value="binding" style="rounded=0;whiteSpace=wrap;html=1;fontSize=18;" parent="1" vertex="1">
          <mxGeometry x="830" y="390" width="120" height="40" as="geometry" />
        </mxCell>
        <mxCell id="lyd2s_9okQ7E43MFHWTp-16" value="" style="endArrow=classic;html=1;rounded=0;exitX=1;exitY=0.75;exitDx=0;exitDy=0;entryX=0;entryY=0.5;entryDx=0;entryDy=0;strokeWidth=2;" parent="1" source="lyd2s_9okQ7E43MFHWTp-7" target="lyd2s_9okQ7E43MFHWTp-12" edge="1">
          <mxGeometry width="50" height="50" relative="1" as="geometry">
            <mxPoint x="680" y="330" as="sourcePoint" />
            <mxPoint x="770" y="420" as="targetPoint" />
          </mxGeometry>
        </mxCell>
        <mxCell id="lyd2s_9okQ7E43MFHWTp-22" value="" style="endArrow=classic;html=1;rounded=0;entryX=0;entryY=0.5;entryDx=0;entryDy=0;exitX=1;exitY=0.5;exitDx=0;exitDy=0;strokeWidth=2;" parent="1" source="lyd2s_9okQ7E43MFHWTp-8" target="lyd2s_9okQ7E43MFHWTp-12" edge="1">
          <mxGeometry width="50" height="50" relative="1" as="geometry">
            <mxPoint x="680" y="550" as="sourcePoint" />
            <mxPoint x="790" y="570" as="targetPoint" />
          </mxGeometry>
        </mxCell>
        <mxCell id="lyd2s_9okQ7E43MFHWTp-24" value="" style="endArrow=none;dashed=1;html=1;rounded=0;strokeWidth=2;" parent="1" edge="1">
          <mxGeometry width="50" height="50" relative="1" as="geometry">
            <mxPoint x="190" y="120" as="sourcePoint" />
            <mxPoint x="190" y="660" as="targetPoint" />
          </mxGeometry>
        </mxCell>
        <mxCell id="lyd2s_9okQ7E43MFHWTp-25" value="" style="endArrow=classic;html=1;rounded=0;entryX=0;entryY=0.5;entryDx=0;entryDy=0;exitX=1;exitY=0.25;exitDx=0;exitDy=0;strokeWidth=2;" parent="1" source="6GzSAq4PURwXcJo1KvY--2" target="lyd2s_9okQ7E43MFHWTp-7" edge="1">
          <mxGeometry width="50" height="50" relative="1" as="geometry">
            <mxPoint x="290" y="390" as="sourcePoint" />
            <mxPoint x="220" y="310" as="targetPoint" />
          </mxGeometry>
        </mxCell>
        <mxCell id="lyd2s_9okQ7E43MFHWTp-27" value="" style="endArrow=classic;html=1;rounded=0;entryX=0;entryY=0.5;entryDx=0;entryDy=0;exitX=1;exitY=0.75;exitDx=0;exitDy=0;strokeWidth=2;" parent="1" source="6GzSAq4PURwXcJo1KvY--2" target="lyd2s_9okQ7E43MFHWTp-8" edge="1">
          <mxGeometry width="50" height="50" relative="1" as="geometry">
            <mxPoint x="280" y="410" as="sourcePoint" />
            <mxPoint x="270" y="390" as="targetPoint" />
          </mxGeometry>
        </mxCell>
        <mxCell id="6GzSAq4PURwXcJo1KvY--2" value="&lt;font style=&quot;font-size: 18px;&quot;&gt;vhost&lt;/font&gt;" style="rounded=0;whiteSpace=wrap;html=1;" parent="1" vertex="1">
          <mxGeometry x="265" y="380" width="100" height="40" as="geometry" />
        </mxCell>
        <mxCell id="6GzSAq4PURwXcJo1KvY--3" value="" style="endArrow=none;dashed=1;html=1;rounded=0;strokeWidth=2;" parent="1" edge="1">
          <mxGeometry width="50" height="50" relative="1" as="geometry">
            <mxPoint x="750" y="100" as="sourcePoint" />
            <mxPoint x="750" y="640" as="targetPoint" />
          </mxGeometry>
        </mxCell>
        <mxCell id="6GzSAq4PURwXcJo1KvY--4" value="绑定关系" style="text;html=1;align=center;verticalAlign=middle;whiteSpace=wrap;rounded=0;fontSize=16;labelBackgroundColor=#FFFFCC;" parent="1" vertex="1">
          <mxGeometry x="770" y="140" width="140" height="30" as="geometry" />
        </mxCell>
        <mxCell id="6GzSAq4PURwXcJo1KvY--5" value="" style="endArrow=classic;html=1;rounded=0;exitX=1;exitY=0.5;exitDx=0;exitDy=0;entryX=0;entryY=0.5;entryDx=0;entryDy=0;curved=0;strokeWidth=2;dashed=1;" parent="1" source="lyd2s_9okQ7E43MFHWTp-1" target="6GzSAq4PURwXcJo1KvY--2" edge="1">
          <mxGeometry width="50" height="50" relative="1" as="geometry">
            <mxPoint x="230" y="560" as="sourcePoint" />
            <mxPoint x="280" y="510" as="targetPoint" />
          </mxGeometry>
        </mxCell>
        <mxCell id="6GzSAq4PURwXcJo1KvY--6" value="&lt;font style=&quot;font-size: 18px;&quot;&gt;vhost1...n&lt;/font&gt;" style="rounded=0;whiteSpace=wrap;html=1;" parent="1" vertex="1">
          <mxGeometry x="265" y="510" width="100" height="40" as="geometry" />
        </mxCell>
        <mxCell id="6GzSAq4PURwXcJo1KvY--7" value="" style="endArrow=classic;html=1;rounded=0;exitX=1;exitY=0.5;exitDx=0;exitDy=0;dashed=1;strokeWidth=2;" parent="1" source="lyd2s_9okQ7E43MFHWTp-1" edge="1">
          <mxGeometry width="50" height="50" relative="1" as="geometry">
            <mxPoint x="210" y="580" as="sourcePoint" />
            <mxPoint x="260" y="530" as="targetPoint" />
          </mxGeometry>
        </mxCell>
        <mxCell id="6GzSAq4PURwXcJo1KvY--8" value="&lt;font style=&quot;font-size: 18px;&quot;&gt;User1...n&lt;/font&gt;" style="rounded=0;whiteSpace=wrap;html=1;" parent="1" vertex="1">
          <mxGeometry x="45" y="600" width="100" height="40" as="geometry" />
        </mxCell>
        <mxCell id="6GzSAq4PURwXcJo1KvY--9" value="exchange1...n" style="rounded=0;whiteSpace=wrap;html=1;fontSize=18;" parent="1" vertex="1">
          <mxGeometry x="510" y="370" width="170" height="50" as="geometry" />
        </mxCell>
        <mxCell id="6GzSAq4PURwXcJo1KvY--10" value="queue1..n" style="rounded=0;whiteSpace=wrap;html=1;fontSize=18;" parent="1" vertex="1">
          <mxGeometry x="510" y="460" width="170" height="50" as="geometry" />
        </mxCell>
        <mxCell id="6GzSAq4PURwXcJo1KvY--11" value="" style="endArrow=classic;html=1;rounded=0;exitX=1;exitY=0.25;exitDx=0;exitDy=0;entryX=0;entryY=0.5;entryDx=0;entryDy=0;strokeWidth=2;" parent="1" source="6GzSAq4PURwXcJo1KvY--2" target="6GzSAq4PURwXcJo1KvY--9" edge="1">
          <mxGeometry width="50" height="50" relative="1" as="geometry">
            <mxPoint x="460" y="430" as="sourcePoint" />
            <mxPoint x="510" y="380" as="targetPoint" />
          </mxGeometry>
        </mxCell>
        <mxCell id="6GzSAq4PURwXcJo1KvY--12" value="" style="endArrow=classic;html=1;rounded=0;exitX=1;exitY=0.75;exitDx=0;exitDy=0;entryX=0;entryY=0.5;entryDx=0;entryDy=0;strokeWidth=2;" parent="1" source="6GzSAq4PURwXcJo1KvY--2" target="6GzSAq4PURwXcJo1KvY--10" edge="1">
          <mxGeometry width="50" height="50" relative="1" as="geometry">
            <mxPoint x="460" y="620" as="sourcePoint" />
            <mxPoint x="510" y="570" as="targetPoint" />
          </mxGeometry>
        </mxCell>
        <mxCell id="6GzSAq4PURwXcJo1KvY--13" value="" style="endArrow=classic;html=1;rounded=0;exitX=1;exitY=0.5;exitDx=0;exitDy=0;entryX=0;entryY=0.75;entryDx=0;entryDy=0;dashed=1;strokeWidth=2;" parent="1" source="6GzSAq4PURwXcJo1KvY--8" target="6GzSAq4PURwXcJo1KvY--2" edge="1">
          <mxGeometry width="50" height="50" relative="1" as="geometry">
            <mxPoint x="150" y="620" as="sourcePoint" />
            <mxPoint x="260" y="410" as="targetPoint" />
          </mxGeometry>
        </mxCell>
        <mxCell id="6GzSAq4PURwXcJo1KvY--14" value="" style="endArrow=classic;html=1;rounded=0;exitX=1;exitY=0.5;exitDx=0;exitDy=0;dashed=1;strokeWidth=2;" parent="1" source="6GzSAq4PURwXcJo1KvY--8" edge="1">
          <mxGeometry width="50" height="50" relative="1" as="geometry">
            <mxPoint x="210" y="580" as="sourcePoint" />
            <mxPoint x="260" y="540" as="targetPoint" />
          </mxGeometry>
        </mxCell>
      </root>
    </mxGraphModel>
  </diagram>
</mxfile>
